<?xml version="1.0" standalone="no"?>
<!DOCTYPE svg PUBLIC "-//W3C//DTD SVG 20010904//EN"
 "http://www.w3.org/TR/2001/REC-SVG-20010904/DTD/svg10.dtd">
<svg version="1.0" xmlns="http://www.w3.org/2000/svg"
 width="50.000000pt" height="50.000000pt" viewBox="0 0 50.000000 50.000000"
 preserveAspectRatio="xMidYMid meet">
<metadata>
Created by potrace 1.16, written by Peter Selinger 2001-2019
</metadata>
<g transform="translate(0.000000,50.000000) scale(0.004621,-0.003621)"
fill="#000000" stroke="none">
<path d="M5040 12780 c0 -6 -43 -10 -109 -10 -63 0 -112 -4 -116 -10 -3 -5
-37 -10 -75 -10 -38 0 -72 -4 -75 -10 -3 -5 -33 -10 -66 -10 -33 0 -59 -4 -59
-10 0 -5 -22 -10 -50 -10 -27 0 -50 -4 -50 -10 0 -5 -18 -10 -39 -10 -22 0
-43 -4 -46 -10 -3 -5 -26 -10 -51 -10 -30 0 -46 -5 -50 -15 -4 -9 -19 -15 -35
-15 -16 0 -29 -4 -29 -10 0 -5 -20 -10 -45 -10 -25 0 -45 -4 -45 -10 0 -5 -13
-10 -30 -10 -16 0 -30 -4 -30 -10 0 -5 -13 -10 -30 -10 -16 0 -30 -4 -30 -10
0 -5 -13 -10 -29 -10 -17 0 -33 -4 -36 -10 -3 -5 -19 -10 -36 -10 -16 0 -29
-4 -29 -10 0 -5 -11 -10 -24 -10 -14 0 -28 -4 -31 -10 -3 -5 -15 -10 -26 -10
-10 0 -19 -4 -19 -10 0 -5 -13 -10 -30 -10 -16 0 -30 -4 -30 -10 0 -5 -6 -10
-13 -10 -20 0 -117 -51 -117 -61 0 -5 -13 -9 -30 -9 -16 0 -30 -4 -30 -10 0
-5 -9 -10 -20 -10 -11 0 -20 -4 -20 -10 0 -5 -9 -10 -20 -10 -11 0 -20 -4 -20
-10 0 -5 -9 -10 -20 -10 -11 0 -20 -4 -20 -10 0 -5 -9 -10 -19 -10 -11 0 -23
-4 -26 -10 -3 -5 -14 -10 -23 -10 -10 0 -24 -9 -32 -20 -8 -11 -22 -20 -32
-20 -10 0 -18 -3 -18 -7 0 -9 -49 -33 -67 -33 -7 0 -13 -4 -13 -9 0 -5 -16
-16 -35 -25 -19 -9 -35 -21 -35 -26 0 -6 -8 -10 -18 -10 -10 0 -24 -9 -32 -20
-8 -11 -21 -20 -30 -20 -9 0 -22 -9 -30 -20 -8 -11 -22 -20 -32 -20 -10 0 -18
-4 -18 -10 0 -5 -7 -10 -15 -10 -8 0 -15 -4 -15 -10 0 -5 -6 -10 -12 -10 -7 0
-27 -14 -45 -30 -18 -17 -36 -30 -40 -30 -13 0 -63 -46 -63 -59 0 -6 -9 -11
-20 -11 -11 0 -20 -4 -20 -10 0 -5 -5 -10 -11 -10 -6 0 -24 -13 -39 -30 -15
-16 -33 -30 -38 -30 -6 0 -42 -31 -81 -70 -39 -38 -75 -70 -80 -70 -12 0 -281
-268 -281 -280 0 -6 -31 -42 -70 -81 -38 -39 -70 -75 -70 -81 0 -5 -13 -23
-30 -38 -16 -15 -30 -33 -30 -39 0 -6 -4 -11 -10 -11 -5 0 -10 -9 -10 -20 0
-11 -5 -20 -11 -20 -12 0 -49 -38 -49 -50 0 -4 -16 -25 -35 -46 -19 -22 -35
-43 -35 -47 0 -4 -9 -17 -20 -29 -11 -12 -20 -29 -20 -38 0 -8 -9 -22 -20 -30
-11 -8 -20 -20 -20 -28 0 -7 -9 -22 -20 -34 -11 -12 -20 -28 -20 -35 0 -7 -4
-13 -9 -13 -10 0 -30 -31 -53 -82 -7 -16 -16 -28 -20 -28 -4 0 -8 -9 -8 -20 0
-11 -4 -20 -10 -20 -5 0 -10 -8 -10 -18 0 -10 -9 -24 -20 -32 -11 -8 -20 -20
-20 -26 0 -7 -13 -38 -30 -69 -16 -31 -30 -63 -30 -71 0 -8 -4 -14 -10 -14 -5
0 -10 -9 -10 -19 0 -11 -4 -23 -10 -26 -5 -3 -10 -17 -10 -31 0 -13 -4 -24 -9
-24 -10 0 -61 -97 -61 -117 0 -7 -4 -13 -10 -13 -5 0 -10 -13 -10 -30 0 -16
-4 -30 -10 -30 -5 0 -10 -9 -10 -19 0 -11 -4 -23 -10 -26 -5 -3 -10 -17 -10
-31 0 -13 -4 -24 -10 -24 -5 0 -10 -13 -10 -29 0 -17 -4 -33 -10 -36 -5 -3
-10 -19 -10 -36 0 -16 -4 -29 -10 -29 -5 0 -10 -13 -10 -30 0 -16 -4 -30 -10
-30 -5 0 -10 -13 -10 -30 0 -16 -4 -30 -10 -30 -5 0 -10 -20 -10 -45 0 -25 -4
-45 -10 -45 -5 0 -10 -12 -10 -26 0 -14 -7 -32 -15 -40 -8 -9 -15 -33 -15 -54
0 -21 -4 -42 -10 -45 -5 -3 -10 -24 -10 -46 0 -21 -4 -39 -10 -39 -5 0 -10
-22 -10 -50 0 -27 -4 -50 -10 -50 -6 0 -10 -26 -10 -59 0 -33 -5 -63 -10 -66
-5 -3 -10 -37 -10 -75 0 -38 -5 -72 -10 -75 -6 -4 -10 -53 -10 -116 0 -66 -4
-109 -10 -109 -6 0 -10 -110 -10 -310 0 -200 4 -310 10 -310 6 0 10 -45 10
-115 0 -70 4 -115 10 -115 6 0 10 -30 10 -69 0 -39 5 -73 10 -76 5 -3 10 -33
10 -66 0 -33 4 -59 10 -59 6 0 10 -22 10 -49 0 -28 5 -53 10 -56 6 -3 10 -21
10 -40 0 -19 5 -37 10 -40 5 -3 10 -26 10 -51 0 -30 5 -46 15 -50 8 -4 15 -19
15 -34 0 -16 5 -32 10 -35 5 -3 10 -24 10 -46 0 -21 5 -39 10 -39 6 0 10 -13
10 -30 0 -16 5 -30 10 -30 6 0 10 -13 10 -30 0 -16 5 -30 10 -30 6 0 10 -13
10 -29 0 -17 5 -33 10 -36 6 -3 10 -19 10 -36 0 -16 5 -29 10 -29 6 0 10 -11
10 -24 0 -14 4 -28 10 -31 5 -3 10 -15 10 -26 0 -10 5 -19 10 -19 6 0 10 -11
10 -24 0 -13 14 -50 30 -81 17 -31 30 -63 30 -71 0 -8 7 -14 15 -14 10 0 15
-10 15 -30 0 -16 5 -30 10 -30 6 0 10 -6 10 -14 0 -8 14 -40 30 -71 17 -31 30
-63 30 -71 0 -8 5 -14 10 -14 6 0 10 -8 10 -18 0 -10 9 -24 20 -32 11 -8 20
-22 20 -32 0 -10 5 -18 10 -18 6 0 10 -7 10 -16 0 -9 13 -35 28 -58 15 -22 31
-49 35 -58 3 -10 11 -18 17 -18 5 0 10 -6 10 -13 0 -7 9 -23 20 -35 11 -12 20
-28 20 -37 0 -8 5 -15 10 -15 6 0 10 -7 10 -15 0 -8 5 -15 10 -15 6 0 10 -6
10 -13 0 -7 9 -23 20 -35 11 -12 20 -25 20 -30 0 -4 16 -25 35 -46 19 -21 35
-42 35 -46 0 -12 37 -50 49 -50 6 0 11 -9 11 -21 0 -11 18 -38 40 -59 22 -21
40 -43 40 -49 0 -6 32 -43 70 -82 38 -39 70 -75 70 -80 0 -12 268 -279 280
-279 6 0 42 -31 80 -70 38 -38 74 -70 80 -70 6 0 31 -20 54 -45 24 -25 49 -45
55 -45 6 0 25 -13 43 -30 17 -16 35 -30 40 -30 4 0 22 -13 40 -30 17 -16 37
-30 44 -30 8 0 14 -4 14 -10 0 -5 7 -10 15 -10 8 0 15 -4 15 -10 0 -5 8 -10
18 -10 10 0 24 -9 32 -20 8 -11 22 -20 32 -20 10 0 18 -6 18 -14 0 -7 29 -28
65 -46 36 -18 65 -37 65 -41 0 -5 6 -9 13 -9 18 0 67 -24 67 -32 0 -5 8 -8 18
-8 10 0 24 -9 32 -20 8 -11 22 -20 32 -20 10 0 18 -4 18 -10 0 -5 7 -10 15
-10 8 0 30 -9 50 -20 20 -11 42 -20 50 -20 8 0 15 -4 15 -9 0 -10 56 -41 75
-41 17 0 65 -24 65 -32 0 -5 9 -8 19 -8 11 0 23 -4 26 -10 3 -5 15 -10 26 -10
10 0 19 -4 19 -10 0 -5 14 -10 30 -10 17 0 30 -4 30 -10 0 -5 9 -10 20 -10 11
0 20 -4 20 -10 0 -5 14 -10 30 -10 17 0 30 -4 30 -10 0 -5 14 -10 30 -10 17 0
30 -4 30 -10 0 -5 16 -10 35 -10 19 0 35 -4 35 -10 0 -5 14 -10 30 -10 17 0
30 -4 30 -10 0 -5 13 -10 29 -10 16 0 31 -6 35 -15 3 -10 19 -15 45 -15 22 0
43 -4 46 -10 3 -5 17 -10 30 -10 13 0 27 -4 30 -10 3 -5 26 -10 51 -10 24 0
44 -4 44 -10 0 -5 20 -10 45 -10 25 0 45 -4 45 -10 0 -5 23 -10 50 -10 28 0
50 -4 50 -10 0 -6 26 -10 59 -10 33 0 63 -5 66 -10 3 -6 37 -10 76 -10 39 0
69 -4 69 -10 0 -6 45 -10 115 -10 70 0 115 -4 115 -10 0 -6 110 -10 310 -10
200 0 310 4 310 10 0 6 45 10 115 10 70 0 115 4 115 10 0 6 30 10 69 10 39 0
73 5 76 10 3 6 33 10 66 10 33 0 59 4 59 10 0 6 22 10 49 10 28 0 53 5 56 10
3 6 24 10 46 10 21 0 39 5 39 10 0 6 20 10 44 10 25 0 48 5 51 10 3 6 19 10
35 10 16 0 32 5 35 10 3 6 22 10 41 10 22 0 37 6 40 15 4 9 19 15 35 15 16 0
29 5 29 10 0 6 14 10 30 10 17 0 30 5 30 10 0 6 16 10 35 10 19 0 35 5 35 10
0 6 14 10 30 10 17 0 30 5 30 10 0 6 14 10 30 10 17 0 30 5 30 10 0 6 9 10 20
10 11 0 20 5 20 10 0 6 14 10 30 10 17 0 30 5 30 10 0 6 9 10 19 10 11 0 23 5
26 10 3 6 15 10 26 10 10 0 19 5 19 10 0 6 9 10 20 10 11 0 20 5 20 10 0 6 11
10 24 10 14 0 28 4 31 10 3 5 15 10 26 10 10 0 19 7 19 15 0 8 9 15 19 15 11
0 23 5 26 10 3 5 15 10 26 10 10 0 19 5 19 10 0 6 9 10 20 10 11 0 20 5 20 10
0 6 8 10 18 10 10 0 24 9 32 20 8 11 22 20 32 20 10 0 18 5 18 10 0 6 6 10 13
10 18 0 67 24 67 33 0 4 6 7 14 7 8 0 16 3 18 8 2 4 24 18 51 31 26 13 47 30
47 38 0 7 8 13 18 13 10 0 24 9 32 20 8 11 22 20 32 20 10 0 18 5 18 10 0 6 7
10 15 10 8 0 15 5 15 10 0 6 6 10 14 10 7 0 27 14 44 30 18 17 36 30 40 30 5
0 23 14 40 30 18 17 37 30 43 30 6 0 31 20 55 45 23 25 48 45 54 45 6 0 42 32
80 70 38 39 74 70 80 70 13 0 280 267 280 280 0 4 32 40 70 79 39 39 70 76 70
81 0 6 20 31 45 56 25 24 45 49 45 55 0 6 14 24 30 39 17 15 30 33 30 39 0 6
14 25 30 43 17 17 30 35 30 40 0 5 9 18 20 30 11 12 20 28 20 35 0 7 5 13 10
13 6 0 10 7 10 15 0 8 5 15 10 15 6 0 10 7 10 16 0 9 9 24 19 33 10 9 29 36
41 59 12 23 26 44 30 47 12 7 40 65 40 82 0 7 5 13 10 13 6 0 10 8 10 18 0 10
9 24 20 32 11 8 20 22 20 32 0 10 5 18 10 18 6 0 10 9 10 20 0 11 5 20 10 20
6 0 10 9 10 20 0 11 5 20 10 20 6 0 10 9 10 20 0 11 5 20 10 20 6 0 10 11 10
24 0 13 7 26 15 30 8 3 15 17 15 31 0 14 5 25 10 25 6 0 10 6 10 14 0 8 14 40
30 71 17 31 30 68 30 81 0 13 5 24 10 24 6 0 10 9 10 20 0 11 5 20 10 20 6 0
10 14 10 30 0 17 5 30 10 30 6 0 10 13 10 29 0 17 5 33 10 36 6 3 10 19 10 36
0 16 5 29 10 29 6 0 10 14 10 30 0 17 5 30 10 30 6 0 10 13 10 29 0 17 5 33
10 36 6 3 10 21 10 40 0 20 6 35 15 39 9 3 15 18 15 35 0 16 4 33 10 36 5 3
10 26 10 50 0 24 5 47 10 50 6 3 10 21 10 40 0 19 5 37 10 40 6 3 10 28 10 56
0 27 5 49 10 49 6 0 10 26 10 59 0 33 5 63 10 66 6 3 10 37 10 76 0 39 4 69
10 69 6 0 10 45 10 115 0 70 4 115 10 115 6 0 10 110 10 310 0 200 -4 310 -10
310 -6 0 -10 45 -10 115 0 70 -4 115 -10 115 -6 0 -10 30 -10 69 0 39 -4 73
-10 76 -5 3 -10 33 -10 66 0 33 -4 59 -10 59 -5 0 -10 23 -10 50 0 28 -4 50
-10 50 -5 0 -10 17 -10 38 0 21 -4 42 -9 48 -5 5 -11 27 -15 49 -13 95 -19
115 -32 115 -10 0 -14 12 -14 39 0 22 -4 43 -10 46 -5 3 -10 19 -10 36 0 16
-4 29 -10 29 -5 0 -10 14 -10 30 0 17 -4 30 -10 30 -5 0 -10 13 -10 29 0 17
-4 33 -10 36 -5 3 -10 19 -10 36 0 16 -4 29 -10 29 -5 0 -10 14 -10 30 0 17
-4 30 -10 30 -5 0 -10 9 -10 20 0 11 -4 20 -10 20 -5 0 -10 14 -10 30 0 17 -4
30 -10 30 -5 0 -10 6 -10 14 0 8 -13 38 -28 68 -16 30 -32 66 -36 81 -3 15
-11 27 -16 27 -6 0 -10 9 -10 20 0 11 -4 20 -10 20 -5 0 -10 11 -10 24 0 13
-3 26 -7 28 -11 4 -53 87 -53 102 0 6 -9 18 -20 26 -11 8 -20 22 -20 32 0 10
-4 18 -10 18 -5 0 -10 9 -10 20 0 11 -4 20 -10 20 -5 0 -10 8 -10 19 0 10 -6
24 -14 30 -8 7 -24 31 -36 54 -12 23 -31 49 -41 58 -10 9 -19 23 -19 30 0 8
-9 21 -20 29 -11 8 -20 22 -20 30 0 9 -9 26 -20 38 -11 12 -20 25 -20 29 0 4
-14 22 -30 40 -17 18 -30 36 -30 41 0 5 -13 23 -30 40 -16 18 -30 37 -30 42 0
6 -7 13 -15 16 -8 4 -15 11 -15 16 0 6 -14 23 -30 38 -16 15 -30 33 -30 38 0
6 -31 42 -70 81 -38 39 -70 76 -70 81 0 13 -268 280 -281 280 -5 0 -41 32 -80
70 -39 39 -75 70 -80 70 -5 0 -28 18 -50 40 -23 22 -50 40 -60 40 -11 0 -19 5
-19 11 0 13 -50 59 -63 59 -4 0 -22 13 -40 30 -18 16 -38 30 -44 30 -7 0 -13
5 -13 10 0 6 -7 10 -15 10 -8 0 -15 5 -15 10 0 6 -8 10 -18 10 -10 0 -24 9
-32 20 -8 11 -21 20 -30 20 -9 0 -22 9 -30 20 -8 11 -22 20 -31 20 -9 0 -19 7
-23 15 -3 8 -11 15 -19 15 -7 0 -22 8 -33 18 -28 24 -61 42 -79 42 -8 0 -15 5
-15 10 0 6 -8 10 -18 10 -10 0 -24 9 -32 20 -8 11 -20 20 -27 20 -7 0 -28 9
-48 20 -20 11 -42 20 -50 20 -8 0 -15 5 -15 10 0 6 -9 10 -20 10 -11 0 -20 5
-20 10 0 6 -9 10 -20 10 -11 0 -20 5 -20 10 0 6 -13 10 -30 10 -20 0 -30 5
-30 15 0 8 -7 15 -15 15 -8 0 -30 9 -50 20 -20 11 -42 20 -50 20 -8 0 -15 5
-15 10 0 6 -13 10 -30 10 -16 0 -30 5 -30 10 0 6 -9 10 -19 10 -11 0 -23 5
-26 10 -3 6 -17 10 -31 10 -13 0 -24 5 -24 10 0 6 -13 10 -29 10 -17 0 -33 5
-36 10 -3 6 -19 10 -36 10 -16 0 -29 5 -29 10 0 6 -13 10 -30 10 -16 0 -30 5
-30 10 0 6 -13 10 -30 10 -16 0 -30 5 -30 10 0 6 -18 10 -40 10 -22 0 -40 5
-40 10 0 6 -15 10 -34 10 -21 0 -36 6 -40 15 -4 10 -20 15 -50 15 -25 0 -48 5
-51 10 -3 6 -21 10 -40 10 -19 0 -37 5 -40 10 -3 6 -28 10 -56 10 -27 0 -49 5
-49 10 0 6 -26 10 -59 10 -33 0 -63 5 -66 10 -3 6 -37 10 -76 10 -39 0 -69 4
-69 10 0 6 -45 10 -115 10 -70 0 -115 4 -115 10 0 6 -110 10 -310 10 -200 0
-310 -4 -310 -10z m560 -870 c0 -6 38 -10 95 -10 57 0 95 -4 95 -10 0 -6 32
-10 75 -10 43 0 75 -4 75 -10 0 -5 22 -10 49 -10 34 0 51 -4 55 -15 4 -10 20
-15 50 -15 25 0 48 -4 51 -10 3 -5 24 -10 46 -10 21 0 39 -4 39 -10 0 -5 14
-10 30 -10 17 0 30 -4 30 -10 0 -5 18 -10 39 -10 22 0 43 -4 46 -10 3 -5 19
-10 36 -10 16 0 29 -4 29 -10 0 -5 14 -10 30 -10 17 0 30 -4 30 -10 0 -5 9
-10 20 -10 11 0 20 -4 20 -10 0 -5 14 -10 30 -10 17 0 30 -4 30 -10 0 -5 11
-10 25 -10 14 0 25 -4 25 -10 0 -5 14 -10 30 -10 17 0 30 -4 30 -10 0 -5 9
-10 20 -10 11 0 20 -4 20 -10 0 -5 9 -10 20 -10 11 0 20 -4 20 -9 0 -11 56
-41 77 -41 7 0 13 -4 13 -10 0 -5 9 -10 20 -10 11 0 20 -4 20 -10 0 -5 9 -10
20 -10 11 0 20 -4 20 -10 0 -5 9 -10 20 -10 11 0 20 -4 20 -10 0 -5 9 -10 20
-10 11 0 20 -4 20 -10 0 -5 7 -10 15 -10 9 0 25 -9 37 -20 12 -11 28 -20 35
-20 7 0 13 -4 13 -10 0 -5 10 -10 23 -10 12 0 29 -9 37 -20 8 -11 22 -20 32
-20 10 0 18 -6 18 -13 0 -8 12 -20 27 -28 15 -8 41 -26 57 -41 16 -16 34 -28
40 -28 6 -1 27 -14 46 -30 19 -17 38 -30 43 -30 5 0 26 -18 47 -40 21 -22 46
-40 54 -40 9 0 16 -5 16 -11 0 -6 21 -30 47 -52 79 -70 353 -349 353 -359 0
-5 18 -27 40 -48 22 -21 40 -44 40 -52 0 -7 16 -30 35 -52 19 -21 35 -42 35
-46 0 -12 37 -50 49 -50 6 0 11 -8 11 -18 0 -10 9 -24 20 -32 11 -8 20 -24 20
-35 0 -11 9 -27 20 -35 11 -8 20 -22 20 -32 0 -10 5 -18 10 -18 6 0 10 -6 10
-13 0 -7 9 -23 20 -35 11 -12 20 -28 20 -37 0 -8 5 -15 10 -15 6 0 10 -9 10
-20 0 -11 5 -20 10 -20 6 0 10 -6 10 -14 0 -13 47 -105 59 -116 12 -11 31 -50
31 -65 0 -8 5 -15 10 -15 6 0 10 -9 10 -20 0 -11 5 -20 10 -20 6 0 10 -11 10
-25 0 -14 5 -25 10 -25 6 0 10 -11 10 -24 0 -14 5 -28 10 -31 6 -3 10 -15 10
-26 0 -10 5 -19 10 -19 6 0 10 -11 10 -24 0 -14 5 -28 10 -31 6 -3 10 -15 10
-26 0 -10 5 -19 10 -19 6 0 10 -13 10 -29 0 -17 5 -33 10 -36 6 -3 10 -17 10
-30 0 -13 5 -27 10 -30 6 -3 10 -21 10 -40 0 -19 5 -37 10 -40 6 -3 10 -19 10
-36 0 -19 5 -29 15 -29 11 0 15 -12 15 -45 0 -25 5 -45 10 -45 6 0 10 -22 10
-50 0 -27 5 -50 10 -50 6 0 10 -25 10 -55 0 -30 5 -55 10 -55 6 0 10 -30 10
-70 0 -40 4 -70 10 -70 6 0 10 -38 10 -95 0 -57 4 -95 10 -95 6 0 10 -90 10
-250 0 -160 -4 -250 -10 -250 -6 0 -10 -38 -10 -95 0 -57 -4 -95 -10 -95 -6 0
-10 -32 -10 -75 0 -43 -4 -75 -10 -75 -5 0 -10 -22 -10 -50 0 -27 -4 -50 -10
-50 -5 0 -10 -22 -10 -49 0 -28 -4 -53 -10 -56 -5 -3 -10 -24 -10 -46 0 -28
-4 -39 -15 -39 -10 0 -15 -10 -15 -29 0 -17 -4 -33 -10 -36 -5 -3 -10 -21 -10
-40 0 -19 -4 -37 -10 -40 -5 -3 -10 -19 -10 -36 0 -16 -4 -29 -10 -29 -5 0
-10 -13 -10 -30 0 -16 -4 -30 -10 -30 -5 0 -10 -9 -10 -19 0 -11 -4 -23 -10
-26 -5 -3 -10 -17 -10 -31 0 -13 -4 -24 -10 -24 -5 0 -10 -9 -10 -19 0 -11 -4
-23 -10 -26 -5 -3 -10 -19 -10 -36 0 -16 -4 -29 -10 -29 -5 0 -10 -9 -10 -20
0 -11 -4 -20 -10 -20 -5 0 -10 -9 -10 -20 0 -11 -4 -20 -10 -20 -5 0 -10 -9
-10 -20 0 -11 -4 -20 -10 -20 -5 0 -10 -9 -10 -20 0 -11 -4 -20 -9 -20 -5 0
-17 -20 -28 -45 -10 -25 -21 -45 -25 -45 -5 0 -8 -9 -8 -20 0 -11 -4 -20 -10
-20 -5 0 -10 -9 -10 -20 0 -11 -4 -20 -10 -20 -5 0 -10 -7 -10 -15 0 -9 -9
-25 -20 -37 -11 -12 -20 -28 -20 -35 0 -7 -4 -13 -10 -13 -5 0 -10 -10 -10
-23 0 -12 -9 -29 -20 -37 -11 -8 -20 -21 -20 -30 0 -9 -9 -22 -20 -30 -11 -8
-20 -22 -20 -32 0 -10 -6 -18 -13 -18 -7 0 -25 -19 -40 -42 -15 -24 -38 -55
-52 -70 -14 -15 -25 -32 -25 -38 0 -7 -18 -29 -40 -50 -22 -21 -40 -43 -40
-49 0 -13 -408 -421 -421 -421 -6 0 -28 -18 -49 -40 -21 -22 -44 -40 -50 -40
-6 0 -25 -13 -43 -30 -18 -16 -36 -30 -42 -30 -14 -1 -65 -47 -65 -60 0 -5 -8
-10 -18 -10 -10 0 -24 -9 -32 -20 -8 -11 -21 -20 -30 -20 -9 0 -22 -9 -30 -20
-8 -11 -25 -20 -37 -20 -13 0 -23 -4 -23 -10 0 -5 -6 -10 -13 -10 -7 0 -23 -9
-35 -20 -12 -11 -28 -20 -37 -20 -8 0 -15 -4 -15 -10 0 -5 -9 -10 -20 -10 -11
0 -20 -4 -20 -10 0 -5 -9 -10 -20 -10 -11 0 -20 -4 -20 -10 0 -5 -9 -10 -20
-10 -11 0 -20 -4 -20 -10 0 -5 -9 -10 -19 -10 -10 0 -21 -7 -25 -15 -3 -8 -15
-15 -26 -15 -11 0 -20 -4 -20 -10 0 -5 -9 -10 -20 -10 -11 0 -20 -4 -20 -10 0
-5 -9 -10 -20 -10 -11 0 -20 -4 -20 -10 0 -5 -9 -10 -20 -10 -11 0 -20 -4 -20
-10 0 -5 -13 -10 -30 -10 -16 0 -30 -4 -30 -10 0 -5 -11 -10 -25 -10 -14 0
-25 -4 -25 -10 0 -5 -11 -10 -24 -10 -14 0 -28 -4 -31 -10 -3 -5 -15 -10 -26
-10 -10 0 -19 -4 -19 -10 0 -5 -13 -10 -30 -10 -16 0 -30 -4 -30 -10 0 -5 -13
-10 -29 -10 -17 0 -33 -4 -36 -10 -3 -5 -21 -10 -40 -10 -19 0 -37 -4 -40 -10
-3 -5 -19 -10 -36 -10 -19 0 -29 -5 -29 -15 0 -11 -12 -15 -45 -15 -25 0 -45
-4 -45 -10 0 -5 -22 -10 -50 -10 -27 0 -50 -4 -50 -10 0 -5 -22 -10 -50 -10
-27 0 -50 -4 -50 -10 0 -6 -32 -10 -75 -10 -43 0 -75 -4 -75 -10 0 -6 -38 -10
-95 -10 -57 0 -95 -4 -95 -10 0 -6 -90 -10 -250 -10 -160 0 -250 4 -250 10 0
6 -38 10 -95 10 -57 0 -95 4 -95 10 0 6 -30 10 -70 10 -40 0 -70 4 -70 10 0 6
-25 10 -55 10 -30 0 -55 5 -55 10 0 6 -22 10 -50 10 -27 0 -50 5 -50 10 0 6
-20 10 -44 10 -30 0 -46 5 -50 15 -3 8 -16 15 -30 15 -14 0 -28 5 -31 10 -3 6
-21 10 -40 10 -19 0 -37 5 -40 10 -3 6 -17 10 -30 10 -13 0 -27 5 -30 10 -3 6
-19 10 -36 10 -16 0 -29 5 -29 10 0 6 -9 10 -19 10 -11 0 -23 5 -26 10 -3 6
-17 10 -31 10 -13 0 -24 5 -24 10 0 6 -11 10 -25 10 -14 0 -25 5 -25 10 0 6
-13 10 -30 10 -16 0 -30 5 -30 10 0 6 -9 10 -20 10 -11 0 -20 5 -20 10 0 6 -9
10 -20 10 -11 0 -20 5 -20 10 0 6 -9 10 -20 10 -11 0 -20 5 -20 10 0 6 -9 10
-19 10 -10 0 -21 7 -25 15 -3 8 -15 15 -26 15 -11 0 -20 5 -20 10 0 6 -9 10
-20 10 -11 0 -20 5 -20 10 0 6 -9 10 -20 10 -11 0 -20 5 -20 10 0 6 -9 10 -20
10 -11 0 -20 5 -20 10 0 6 -7 10 -15 10 -9 0 -25 9 -37 20 -12 11 -28 20 -35
20 -7 0 -13 5 -13 10 0 6 -9 10 -20 10 -11 0 -20 5 -20 10 0 6 -7 10 -15 10
-8 0 -15 5 -15 10 0 6 -8 10 -18 10 -10 0 -24 9 -32 20 -8 11 -22 20 -32 20
-10 0 -18 5 -18 10 0 13 -51 59 -65 60 -5 0 -24 14 -42 30 -18 17 -37 30 -43
30 -6 0 -29 18 -50 40 -21 22 -43 40 -49 40 -11 0 -421 408 -421 420 0 4 -18
26 -40 49 -22 22 -40 46 -40 52 0 5 -13 24 -30 42 -16 18 -30 37 -30 42 0 6
-14 24 -30 42 -17 18 -30 36 -30 41 0 5 -11 18 -25 28 -14 10 -25 26 -25 34 0
9 -9 22 -20 30 -11 8 -20 25 -20 37 0 13 -4 23 -10 23 -5 0 -10 6 -10 13 0 7
-9 23 -20 35 -11 12 -20 28 -20 37 0 8 -4 15 -10 15 -5 0 -10 9 -10 20 0 11
-4 20 -10 20 -5 0 -10 9 -10 19 0 11 -3 21 -7 23 -5 2 -21 31 -37 66 -16 34
-33 62 -38 62 -4 0 -8 9 -8 20 0 11 -4 20 -10 20 -5 0 -10 9 -10 20 0 11 -4
20 -10 20 -5 0 -10 9 -10 20 0 11 -4 20 -10 20 -5 0 -10 13 -10 29 0 17 -4 33
-10 36 -6 3 -10 15 -10 26 0 10 -4 19 -10 19 -5 0 -10 14 -10 30 0 17 -4 30
-10 30 -5 0 -10 9 -10 20 0 11 -4 20 -10 20 -5 0 -10 14 -10 30 0 17 -4 30
-10 30 -5 0 -10 13 -10 29 0 17 -4 33 -10 36 -5 3 -10 21 -10 40 0 19 -4 37
-10 40 -5 3 -10 19 -10 36 0 16 -4 29 -10 29 -5 0 -10 18 -10 40 0 27 -5 43
-15 46 -11 4 -15 21 -15 55 0 27 -4 49 -10 49 -5 0 -10 23 -10 50 0 28 -4 50
-10 50 -6 0 -10 32 -10 75 0 43 -4 75 -10 75 -6 0 -10 38 -10 95 0 57 -4 95
-10 95 -6 0 -10 90 -10 250 0 160 4 250 10 250 6 0 10 38 10 95 0 57 4 95 10
95 6 0 10 30 10 70 0 40 4 70 10 70 6 0 10 25 10 55 0 30 5 55 10 55 6 0 10
22 10 49 0 34 4 51 15 55 10 3 15 19 15 46 0 22 5 40 10 40 6 0 10 13 10 29 0
17 4 33 10 36 6 3 10 22 10 41 0 19 5 34 10 34 6 0 10 13 10 29 0 17 5 33 10
36 6 3 10 19 10 36 0 16 5 29 10 29 6 0 10 9 10 20 0 11 5 20 10 20 6 0 10 14
10 30 0 17 5 30 10 30 6 0 10 9 10 19 0 11 5 23 10 26 6 3 10 17 10 31 0 13 5
24 10 24 6 0 10 11 10 25 0 14 5 25 10 25 6 0 10 9 10 20 0 11 5 20 10 20 6 0
10 9 10 19 0 11 4 21 8 23 11 4 82 139 82 155 0 7 5 13 10 13 6 0 10 9 10 20
0 11 5 20 10 20 6 0 10 7 10 15 0 9 9 25 20 37 11 12 20 28 20 35 0 7 5 13 10
13 6 0 10 8 10 18 0 10 9 24 20 32 11 8 20 23 20 33 0 20 22 47 39 47 6 0 11
7 11 15 0 8 14 29 30 47 17 17 30 35 30 40 0 5 13 23 30 41 16 18 30 38 30 44
0 7 18 32 40 54 22 23 40 45 40 48 0 8 254 266 343 349 31 29 57 57 57 63 0 5
7 9 16 9 8 0 33 18 54 40 21 22 44 40 50 40 6 0 25 13 43 30 18 16 37 30 43
30 6 0 24 12 40 28 16 15 42 33 57 41 15 8 27 20 27 28 0 7 9 13 20 13 11 0
20 5 20 10 0 6 7 10 15 10 8 0 15 5 15 10 0 6 9 10 20 10 11 0 20 5 20 10 0 6
6 10 13 10 7 0 23 9 35 20 12 11 28 20 37 20 8 0 15 5 15 10 0 6 9 10 20 10
11 0 20 3 20 8 0 8 49 32 67 32 7 0 13 5 13 10 0 6 6 10 13 10 20 0 117 51
117 61 0 5 9 9 20 9 11 0 20 5 20 10 0 6 9 10 20 10 11 0 20 5 20 10 0 6 14
10 30 10 17 0 30 5 30 10 0 6 11 10 25 10 14 0 25 5 25 10 0 6 14 10 30 10 17
0 30 5 30 10 0 6 9 10 20 10 11 0 20 5 20 10 0 6 13 10 29 10 17 0 33 5 36 10
3 6 19 10 36 10 16 0 29 5 29 10 0 6 18 10 40 10 22 0 40 5 40 10 0 6 11 10
24 10 14 0 28 5 31 10 3 6 24 10 45 10 21 0 42 5 45 10 3 6 26 10 51 10 30 0
46 5 50 15 5 11 21 15 60 15 30 0 54 5 54 10 0 6 30 10 70 10 40 0 70 4 70 10
0 6 38 10 95 10 57 0 95 4 95 10 0 6 90 10 250 10 160 0 250 -4 250 -10z"/>
<path d="M4633 9787 c-391 -392 -750 -749 -797 -793 -47 -45 -86 -85 -86 -88
0 -8 -67 -76 -75 -76 -7 0 -175 -168 -175 -175 0 -7 -68 -75 -75 -75 -7 0
-175 -168 -175 -175 0 -7 -68 -75 -75 -75 -7 0 -175 -168 -175 -175 0 -8 -68
-75 -76 -75 -8 0 -94 -91 -94 -99 0 -9 87 -101 95 -101 8 0 35 -26 35 -34 0
-6 210 -216 216 -216 7 0 34 -27 34 -34 0 -6 210 -216 216 -216 8 0 34 -28 34
-36 0 -11 54 -54 69 -54 7 0 118 105 246 233 128 127 253 251 279 274 25 23
46 44 46 47 0 8 148 156 155 156 6 0 95 89 95 95 0 7 148 155 155 155 6 0 95
89 95 95 0 7 148 155 155 155 6 0 95 89 95 95 0 7 148 155 155 155 9 0 95 91
95 100 0 6 6 10 14 10 7 0 69 54 136 119 l122 120 119 -120 c65 -65 123 -119
128 -119 6 0 364 -353 795 -785 432 -432 792 -785 801 -785 17 0 695 672 695
689 0 13 -146 161 -159 161 -6 0 -11 5 -11 10 0 6 -52 62 -115 125 -63 63
-119 115 -125 115 -5 0 -10 5 -10 10 0 6 -52 62 -115 125 -63 63 -119 115
-125 115 -5 0 -10 5 -10 10 0 6 -52 62 -115 125 -63 63 -119 115 -125 115 -5
0 -10 5 -10 10 0 13 -227 240 -240 240 -5 0 -10 5 -10 10 0 6 -52 62 -115 125
-63 63 -119 115 -125 115 -5 0 -10 5 -10 10 0 6 -52 62 -115 125 -63 63 -119
115 -125 115 -5 0 -10 5 -10 10 0 6 -52 62 -115 125 -63 63 -119 115 -125 115
-5 0 -10 5 -10 10 0 10 -165 180 -174 180 -6 0 -76 71 -76 77 0 3 -10 14 -22
25 -39 34 -228 220 -228 225 0 2 -21 24 -47 48 -30 28 -57 44 -73 44 -20 0
-175 -149 -737 -712z"/>
<path d="M5220 3839 c-529 -50 -947 -381 -1110 -879 -70 -212 -95 -409 -87
-670 9 -265 48 -431 157 -655 221 -458 659 -725 1192 -725 536 0 970 254 1194
700 112 224 166 474 166 765 0 407 -105 738 -317 1002 -82 103 -154 167 -278
250 -258 173 -570 245 -917 212z m340 -340 c249 -46 466 -194 600 -411 127
-208 192 -501 176 -803 -27 -530 -268 -881 -691 -1011 -84 -26 -102 -28 -270
-28 -167 0 -186 2 -268 27 -107 33 -202 80 -284 141 -302 222 -438 581 -403
1069 28 407 128 640 349 819 219 176 508 248 791 197z"/>
<path d="M1500 3625 l0 -175 465 0 465 0 0 -1245 0 -1245 195 0 195 0 0 1245
0 1245 465 0 465 0 0 175 0 175 -1125 0 -1125 0 0 -175z"/>
<path d="M7210 2381 l0 -1421 195 0 195 0 0 574 0 575 493 4 c537 4 574 7 762
67 143 46 244 113 330 218 69 83 127 194 160 307 36 122 46 322 21 445 -62
307 -256 521 -537 595 -168 45 -205 47 -926 52 l-693 5 0 -1421z m1471 1042
c196 -74 302 -237 302 -468 0 -140 -37 -246 -116 -333 -84 -91 -202 -141 -380
-161 -53 -6 -274 -11 -492 -11 l-395 0 0 501 0 500 513 -3 c491 -4 514 -5 568
-25z"/>
</g>
</svg>
